<svg width="133" height="149" viewBox="0 0 133 149" fill="none" xmlns="http://www.w3.org/2000/svg">
<g filter="url(#filter0_d_304_5)">
<path d="M72.864 47.56L48.032 125H39.456L14.496 47.56C13.728 45 13.1307 43.5067 12.704 43.08C12.3627 42.568 11.5093 42.2267 10.144 42.056L3.744 41.416V37.96H33.824V41.416L27.296 42.056C25.9307 42.2267 25.1627 42.568 24.992 43.08C24.9067 43.592 25.248 45.0853 26.016 47.56L47.136 113.864L68.256 47.56C69.1093 45.0853 69.4507 43.592 69.28 43.08C69.1947 42.568 68.4267 42.2267 66.976 42.056L60.448 41.416V37.96H83.616V41.416L77.088 42.056C76.2347 42.1413 75.5947 42.312 75.168 42.568C74.8267 42.7387 74.4853 43.208 74.144 43.976C73.888 44.6587 73.4613 45.8533 72.864 47.56Z" fill="#067540"/>
<path d="M72.864 47.56L48.032 125H39.456L14.496 47.56C13.728 45 13.1307 43.5067 12.704 43.08C12.3627 42.568 11.5093 42.2267 10.144 42.056L3.744 41.416V37.96H33.824V41.416L27.296 42.056C25.9307 42.2267 25.1627 42.568 24.992 43.08C24.9067 43.592 25.248 45.0853 26.016 47.56L47.136 113.864L68.256 47.56C69.1093 45.0853 69.4507 43.592 69.28 43.08C69.1947 42.568 68.4267 42.2267 66.976 42.056L60.448 41.416V37.96H83.616V41.416L77.088 42.056C76.2347 42.1413 75.5947 42.312 75.168 42.568C74.8267 42.7387 74.4853 43.208 74.144 43.976C73.888 44.6587 73.4613 45.8533 72.864 47.56Z" fill="#13046B" fill-opacity="0.1"/>
<path d="M63.064 121.672V125H38.744V121.672L45.656 120.904C46.5947 120.819 47.2773 120.691 47.704 120.52C48.1307 120.264 48.5147 119.752 48.856 118.984C49.2827 118.131 49.7947 116.68 50.392 114.632L75.096 37.96H83.16L108.12 114.632C108.717 116.68 109.187 118.131 109.528 118.984C109.955 119.752 110.381 120.264 110.808 120.52C111.235 120.691 111.875 120.819 112.728 120.904L119.768 121.672V125H88.664V121.672L95.704 120.904C97.0693 120.733 97.7947 120.392 97.88 119.88C98.0507 119.283 97.6667 117.533 96.728 114.632L91.48 98.248H60.248L55 114.632C54.0613 117.533 53.6347 119.283 53.72 119.88C53.8907 120.392 54.6587 120.733 56.024 120.904L63.064 121.672ZM61.528 94.152H90.2L75.864 49.608L61.528 94.152Z" fill="#067540"/>
<path d="M63.064 121.672V125H38.744V121.672L45.656 120.904C46.5947 120.819 47.2773 120.691 47.704 120.52C48.1307 120.264 48.5147 119.752 48.856 118.984C49.2827 118.131 49.7947 116.68 50.392 114.632L75.096 37.96H83.16L108.12 114.632C108.717 116.68 109.187 118.131 109.528 118.984C109.955 119.752 110.381 120.264 110.808 120.52C111.235 120.691 111.875 120.819 112.728 120.904L119.768 121.672V125H88.664V121.672L95.704 120.904C97.0693 120.733 97.7947 120.392 97.88 119.88C98.0507 119.283 97.6667 117.533 96.728 114.632L91.48 98.248H60.248L55 114.632C54.0613 117.533 53.6347 119.283 53.72 119.88C53.8907 120.392 54.6587 120.733 56.024 120.904L63.064 121.672ZM61.528 94.152H90.2L75.864 49.608L61.528 94.152Z" fill="#13046B" fill-opacity="0.1"/>
</g>
<defs>
<filter id="filter0_d_304_5" x="0.743896" y="32.96" width="132.024" height="103.04" filterUnits="userSpaceOnUse" color-interpolation-filters="sRGB">
<feFlood flood-opacity="0" result="BackgroundImageFix"/>
<feColorMatrix in="SourceAlpha" type="matrix" values="0 0 0 0 0 0 0 0 0 0 0 0 0 0 0 0 0 0 127 0" result="hardAlpha"/>
<feOffset dx="5" dy="3"/>
<feGaussianBlur stdDeviation="4"/>
<feComposite in2="hardAlpha" operator="out"/>
<feColorMatrix type="matrix" values="0 0 0 0 0 0 0 0 0 0 0 0 0 0 0 0 0 0 0.45 0"/>
<feBlend mode="normal" in2="BackgroundImageFix" result="effect1_dropShadow_304_5"/>
<feBlend mode="normal" in="SourceGraphic" in2="effect1_dropShadow_304_5" result="shape"/>
</filter>
</defs>
</svg>
