<svg width="130" height="149" viewBox="0 0 130 149" fill="none" xmlns="http://www.w3.org/2000/svg">
<g filter="url(#filter0_d_304_6)">
<path d="M109.864 47.56L85.032 125H76.456L51.496 47.56C50.728 45 50.1307 43.5067 49.704 43.08C49.3627 42.568 48.5093 42.2267 47.144 42.056L40.744 41.416V37.96H70.824V41.416L64.296 42.056C62.9307 42.2267 62.1627 42.568 61.992 43.08C61.9067 43.592 62.248 45.0853 63.016 47.56L84.136 113.864L105.256 47.56C106.109 45.0853 106.451 43.592 106.28 43.08C106.195 42.568 105.427 42.2267 103.976 42.056L97.448 41.416V37.96H120.616V41.416L114.088 42.056C113.235 42.1413 112.595 42.312 112.168 42.568C111.827 42.7387 111.485 43.208 111.144 43.976C110.888 44.6587 110.461 45.8533 109.864 47.56Z" fill="#067540"/>
<path d="M29.064 121.672V125H4.744V121.672L11.656 120.904C12.5947 120.819 13.2773 120.691 13.704 120.52C14.1307 120.264 14.5147 119.752 14.856 118.984C15.2827 118.131 15.7947 116.68 16.392 114.632L41.096 37.96H49.16L74.12 114.632C74.7173 116.68 75.1867 118.131 75.528 118.984C75.9547 119.752 76.3813 120.264 76.808 120.52C77.2347 120.691 77.8747 120.819 78.728 120.904L85.768 121.672V125H54.664V121.672L61.704 120.904C63.0693 120.733 63.7947 120.392 63.88 119.88C64.0507 119.283 63.6667 117.533 62.728 114.632L57.48 98.248H26.248L21 114.632C20.0613 117.533 19.6347 119.283 19.72 119.88C19.8907 120.392 20.6587 120.733 22.024 120.904L29.064 121.672ZM27.528 94.152H56.2L41.864 49.608L27.528 94.152Z" fill="#067540"/>
</g>
<defs>
<filter id="filter0_d_304_6" x="0.743896" y="37.96" width="123.872" height="95.04" filterUnits="userSpaceOnUse" color-interpolation-filters="sRGB">
<feFlood flood-opacity="0" result="BackgroundImageFix"/>
<feColorMatrix in="SourceAlpha" type="matrix" values="0 0 0 0 0 0 0 0 0 0 0 0 0 0 0 0 0 0 127 0" result="hardAlpha"/>
<feOffset dy="4"/>
<feGaussianBlur stdDeviation="2"/>
<feComposite in2="hardAlpha" operator="out"/>
<feColorMatrix type="matrix" values="0 0 0 0 0 0 0 0 0 0 0 0 0 0 0 0 0 0 0.25 0"/>
<feBlend mode="normal" in2="BackgroundImageFix" result="effect1_dropShadow_304_6"/>
<feBlend mode="normal" in="SourceGraphic" in2="effect1_dropShadow_304_6" result="shape"/>
</filter>
</defs>
</svg>
